<?xml version="1.0" encoding="utf-8"?><svg xmlns="http://www.w3.org/2000/svg" xmlns:xlink="http://www.w3.org/1999/xlink" width="1404" height="656" preserveAspectRatio="xMidYMid" viewBox="0 0 1404 656" style="z-index:1;margin-right:-2px;display:block;background-repeat-y:initial;background-repeat-x:initial;background-color:rgb(255, 255, 255);animation-play-state:paused" ><g transform="translate(702,328) scale(1,1) translate(-702,-328)" style="transform:matrix(1, 0, 0, 1, 0, 0);animation-play-state:paused" ><linearGradient id="lg-0.11863607547337085" x1="0" x2="1" y1="0" y2="0" style="animation-play-state:paused" ><stop stop-color="#07f507" offset="0" style="animation-play-state:paused" ></stop>

  
<stop stop-color="#008000" offset="1" style="animation-play-state:paused" ></stop></linearGradient>
<path d="M 0 0 L 0 579.114 Q 140.4 634.775 280.8 603.154 T 561.6 521.888 T 842.4 425.33 T 1123.2 455.434 T 1404 328.909 L 1404 0 Z" fill="url(#lg-0.11863607547337085)" opacity="0.4" style="opacity:0.4;animation-play-state:paused" ></path>
<path d="M 0 0 L 0 592.023 Q 140.4 585.003 280.8 555.347 T 561.6 515.4 T 842.4 430.967 T 1123.2 417.729 T 1404 391.627 L 1404 0 Z" fill="url(#lg-0.11863607547337085)" opacity="0.4" style="opacity:0.4;animation-play-state:paused" ></path>
<path d="M 0 0 L 0 552.267 Q 140.4 577.267 280.8 543.69 T 561.6 549.061 T 842.4 417.033 T 1123.2 401.924 T 1404 365.331 L 1404 0 Z" fill="url(#lg-0.11863607547337085)" opacity="0.4" style="opacity:0.4;animation-play-state:paused" ></path>
<path d="M 0 0 L 0 621.323 Q 140.4 573.959 280.8 547.929 T 561.6 461.678 T 842.4 437.708 T 1123.2 380.276 T 1404 321.462 L 1404 0 Z" fill="url(#lg-0.11863607547337085)" opacity="0.4" style="opacity:0.4;animation-play-state:paused" ></path>
<path d="M 0 0 L 0 555.343 Q 140.4 566.749 280.8 541.453 T 561.6 528.632 T 842.4 490.116 T 1123.2 409.658 T 1404 408.392 L 1404 0 Z" fill="url(#lg-0.11863607547337085)" opacity="0.4" style="opacity:0.4;animation-play-state:paused" ></path></g></svg>